<?xml version="1.0" standalone="no"?><!DOCTYPE svg PUBLIC "-//W3C//DTD SVG 1.1//EN" "http://www.w3.org/Graphics/SVG/1.1/DTD/svg11.dtd">
<svg t="1643197058445" class="icon" viewBox="0 0 1024 1024" version="1.1" xmlns="http://www.w3.org/2000/svg" p-id="1336"
     width="200" height="200"><defs><style type="text/css"></style></defs><path d="M832 96H192c-35.2 0-64 28.8-64 64v704c0 35.2 28.8 64 64 64h640c35.2 0 64-28.8 64-64V160c0-35.2-28.8-64-64-64zM192 416h640v192H192v-192z m640-256v192H192V160h640zM192 864v-192h640v192H192z" p-id="1337"></path><path d="M288 256m-32 0a32 32 0 1 0 64 0 32 32 0 1 0-64 0Z" p-id="1338"></path><path d="M288 512m-32 0a32 32 0 1 0 64 0 32 32 0 1 0-64 0Z" p-id="1339"></path><path d="M288 768m-32 0a32 32 0 1 0 64 0 32 32 0 1 0-64 0Z" p-id="1340"></path></svg>
